<svg width="92" height="22" viewBox="0 0 92 22" fill="none" xmlns="http://www.w3.org/2000/svg">
<path fill-rule="evenodd" clip-rule="evenodd" d="M31.4207 9.69774C31.484 11.1653 31.0944 12.5112 29.9436 13.6139C29.0283 14.4896 27.8865 14.9679 26.5363 15.0084C25.8928 15.0246 25.2222 15.057 24.597 14.9436C22.3588 14.5624 20.8091 13.0949 20.4377 11.0437C20.2292 9.90035 20.2382 8.75716 20.6189 7.63018C21.3892 5.33557 23.6998 4.03837 26.5091 4.30591C29.427 4.58155 31.3029 6.38967 31.4297 9.0247C31.4297 9.25175 31.4207 9.47879 31.4207 9.69774ZM22.6307 9.50309C22.7031 10.0788 22.7212 10.4842 22.8028 10.8733C23.0837 12.2031 24.0714 13.1031 25.3674 13.2247C26.9441 13.3788 28.1493 12.8436 28.693 11.668C29.3001 10.3625 29.2911 9.0166 28.7021 7.7032C28.2127 6.61671 27.1707 6.0815 25.7933 6.11403C24.4611 6.13833 23.4553 6.73024 23.0385 7.83292C22.8119 8.4166 22.7393 9.049 22.6307 9.50309Z" fill="#32448C"/>
<path fill-rule="evenodd" clip-rule="evenodd" d="M9.4629 7.49288C8.79231 7.49288 8.15792 7.50098 7.53258 7.48479C7.42396 7.48479 7.25167 7.37126 7.23357 7.28204C7.02522 6.44689 6.37273 6.07393 5.51189 6.01723C4.95912 5.98484 4.37905 6.04153 3.84453 6.16315C3.33702 6.27667 3.06516 6.65773 3.038 7.13612C3.01085 7.59021 3.30081 7.88204 3.7267 8.03606C4.30663 8.24691 4.92276 8.40093 5.52094 8.56318C6.28206 8.76579 7.07953 8.91171 7.8227 9.15495C10.1333 9.92531 10.6228 12.6091 8.80136 14.1171C7.36044 15.3171 3.21919 15.3657 1.77843 14.0684C1.02622 13.3955 0.672738 12.6091 0.609375 11.628C1.31618 11.628 1.99583 11.6198 2.67547 11.6361C2.76614 11.6361 2.91113 11.7496 2.93828 11.8387C3.19204 12.8036 3.9622 13.2089 4.97723 13.2577C5.53 13.2901 6.10992 13.2415 6.65364 13.1361C7.20641 13.0306 7.53258 12.6739 7.60515 12.155C7.67771 11.6604 7.35139 11.3279 6.91645 11.1658C6.03751 10.8495 5.13126 10.6063 4.23406 10.3469C3.76291 10.209 3.26445 10.1198 2.7933 9.982C1.58804 9.63334 0.917442 8.87931 0.808668 7.75232C0.672738 6.48752 1.03527 5.39293 2.40362 4.79292C2.94733 4.54968 3.56362 4.41996 4.16165 4.33073C5.17652 4.19292 6.19154 4.23341 7.1702 4.54158C8.62907 5.00377 9.51721 6.12266 9.4629 7.49288Z" fill="#32448C"/>
<path fill-rule="evenodd" clip-rule="evenodd" d="M11.0486 4.54978C12.879 4.54978 14.6825 4.50105 16.4858 4.56598C18.3797 4.63077 19.4399 5.53085 19.6484 7.20925C19.7208 7.79292 19.6755 8.40912 19.5396 8.98483C19.2044 10.3551 18.0896 11.0848 16.3498 11.1334C15.3531 11.1578 14.3562 11.1416 13.3141 11.1416V14.701H11.0486V4.54978ZM13.3232 9.21998C14.3381 9.21998 15.3439 9.28477 16.3227 9.19568C17.0385 9.13075 17.3466 8.64427 17.3828 7.88214C17.4192 7.14432 17.0838 6.51192 16.4313 6.43079C15.4074 6.30107 14.3652 6.31727 13.3232 6.27677V9.21998Z" fill="#32448C"/>
<path fill-rule="evenodd" clip-rule="evenodd" d="M40.5806 6.35828H37.3004V14.7176H34.9532V6.37448H31.5913V4.57446H40.5806V6.35828Z" fill="#32448C"/>
<path fill-rule="evenodd" clip-rule="evenodd" d="M83.3531 14.5467H82.4016V4.78478C83.3441 4.60633 83.4438 4.63886 83.9422 5.32796C85.7455 7.78468 87.5488 10.2414 89.3431 12.69C89.4428 12.8278 89.5516 12.9576 89.7328 13.2008V4.74415H90.7024V14.4819C89.8868 14.709 89.633 14.636 89.2071 14.0441C87.3878 11.5645 85.5663 9.08619 83.7428 6.6091C83.6431 6.47938 83.5435 6.34952 83.3441 6.26043C83.3531 9.00899 83.3531 11.7577 83.3531 14.5467Z" fill="#32448C"/>
<path fill-rule="evenodd" clip-rule="evenodd" d="M70.9473 9.61664C71.0651 8.94374 71.1013 8.24641 71.3096 7.59781C71.9985 5.44913 73.847 4.36264 76.5112 4.45186C78.6679 4.52489 80.426 5.90322 80.9335 7.93824C81.2687 9.28418 81.2416 10.6382 80.7431 11.9517C80.0635 13.7356 78.4868 14.7733 76.3935 14.8383C73.249 14.9354 71.1466 13.168 71.047 10.3383C71.0379 10.1031 71.047 9.85989 71.047 9.62474C71.0106 9.62474 70.9835 9.62474 70.9473 9.61664ZM80.2538 9.70587C80.2084 9.69777 80.1541 9.68157 80.1089 9.67347C80.0998 8.78149 79.982 7.91395 79.5197 7.11133C78.8039 5.87892 77.6712 5.23828 76.1034 5.23018C74.5267 5.22208 73.3486 5.83019 72.6689 7.0788C71.7628 8.7491 71.7628 10.4923 72.6056 12.1788C73.2671 13.4842 74.4905 14.1166 76.0853 14.1085C77.6802 14.1004 78.9126 13.4598 79.5378 12.1464C79.9004 11.376 80.0272 10.5248 80.2538 9.70587Z" fill="#32448C"/>
<path fill-rule="evenodd" clip-rule="evenodd" d="M41.1162 9.62508C41.2702 8.87915 41.3338 8.11703 41.5875 7.4035C42.2491 5.54679 43.9617 4.4603 46.1003 4.4522C48.5379 4.4441 50.2144 5.43327 50.9394 7.37111C51.5374 8.99268 51.5464 10.6468 50.8125 12.2277C50.0695 13.8413 48.7102 14.7575 46.7074 14.8386C43.4089 14.9683 41.2521 13.1116 41.234 10.1359V9.64128C41.1978 9.64128 41.1526 9.63318 41.1162 9.62508ZM42.1312 9.60078C42.2672 10.2819 42.3215 10.9224 42.5209 11.5386C43.0373 13.1521 44.4238 14.0927 46.2182 14.117C48.0305 14.1332 49.4622 13.2007 50.015 11.5953C50.459 10.3062 50.459 9.00077 49.9969 7.71977C49.4351 6.1468 48.0939 5.25495 46.3268 5.23862C44.5326 5.22242 43.1823 6.05757 42.5933 7.63055C42.3577 8.27105 42.2762 8.96028 42.1312 9.60078Z" fill="#32448C"/>
<path fill-rule="evenodd" clip-rule="evenodd" d="M53.5677 10.3151V13.8826C53.5677 14.6528 53.5677 14.6528 52.6616 14.5312V4.76113C52.7702 4.75289 52.8971 4.7286 53.024 4.7286C54.3199 4.7286 55.6248 4.6962 56.9207 4.74479C57.4735 4.76923 58.0262 4.93134 58.5609 5.07726C58.7783 5.13409 58.9777 5.27191 59.1499 5.40163C60.7539 6.62594 60.2373 9.39879 58.2436 9.9826C57.41 10.2258 56.4766 10.242 55.5886 10.3151C54.9542 10.3556 54.3017 10.3151 53.5677 10.3151ZM53.613 9.46372C53.7399 9.47992 53.8034 9.48802 53.8667 9.48802C54.7004 9.48802 55.5341 9.50422 56.3679 9.47992C56.7938 9.46372 57.2378 9.41499 57.6456 9.3097C58.6695 9.05013 59.0954 8.41773 59.0411 7.30694C59.0049 6.3989 58.4974 5.7422 57.5097 5.63677C56.232 5.49895 54.9361 5.51515 53.613 5.46642V9.46372Z" fill="#32448C"/>
<path fill-rule="evenodd" clip-rule="evenodd" d="M63.4981 5.5066H60.0818V4.75244H67.9112V5.5066H64.5221V14.5307H63.4981V5.5066Z" fill="#32448C"/>
<path fill-rule="evenodd" clip-rule="evenodd" d="M11.3025 0.398438C12.2812 0.982246 13.3505 1.20929 14.5194 1.17676C15.3169 1.16056 16.1143 1.18486 16.9118 1.25788C18.0717 1.36331 19.0232 1.86599 19.8116 2.62001C19.9385 2.73354 20.0563 2.85516 20.2919 3.0903C20.3734 2.96058 20.4096 2.83896 20.5003 2.74973C21.5425 1.66324 22.8835 1.19296 24.4694 1.16866C25.4028 1.15246 26.3362 1.16056 27.2604 1.06324C27.777 1.01464 28.2664 0.787598 28.7918 0.633581C28.1486 1.49303 27.2242 1.85789 26.1096 1.89839C25.5297 1.91458 24.9406 1.89839 24.3606 1.89839C22.4124 1.89839 20.9081 2.89565 20.3463 4.55785C20.3101 4.65518 20.2827 4.74427 20.2284 4.93082C20.1468 4.69567 20.0925 4.54975 20.0382 4.39574C19.4764 2.87945 17.9721 1.90649 16.196 1.89029C15.335 1.88219 14.456 1.89839 13.6042 1.79296C12.5892 1.68768 11.8553 1.14436 11.3025 0.398438Z" fill="#32448C"/>
<path fill-rule="evenodd" clip-rule="evenodd" d="M68.6919 4.73608H69.6072V14.5387H68.6919V4.73608Z" fill="#32448C"/>
<path fill-rule="evenodd" clip-rule="evenodd" d="M51.8276 18.82C52.4167 18.4875 52.6976 18.4956 53.2504 18.893C53.3863 18.8119 53.5041 18.7145 53.6582 18.6578C54.1928 18.4389 54.7093 18.6659 54.7637 19.1848C54.818 19.6551 54.7999 20.1335 54.7909 20.6119C54.7909 20.6929 54.664 20.7821 54.6006 20.8632C54.5371 20.774 54.4193 20.6929 54.4193 20.6038C54.3921 20.1983 54.4012 19.801 54.4012 19.3957C54.4012 19.1118 54.2924 18.8768 53.921 18.8849C53.5856 18.893 53.3501 19.0551 53.3228 19.3795C53.2956 19.7686 53.3138 20.1578 53.2866 20.5388C53.2775 20.6524 53.1507 20.7578 53.0783 20.8632C53.0147 20.7578 52.906 20.6605 52.906 20.5469C52.8788 20.174 52.8969 19.801 52.8969 19.4281C52.8969 19.1524 52.8426 18.893 52.462 18.8849C52.0994 18.8768 51.8549 19.0551 51.8276 19.3876C51.7914 19.7767 51.8004 20.1578 51.7642 20.5469C51.7552 20.6524 51.6554 20.7578 51.5921 20.8632C51.5195 20.7578 51.3926 20.6443 51.3926 20.5388C51.3745 20.0038 51.3745 19.4686 51.3926 18.9335C51.3926 18.8362 51.4833 18.7388 51.5286 18.6416C51.6011 18.6902 51.7009 18.7471 51.8276 18.82ZM75.6875 17.8146C76.3672 17.8146 77.0016 17.7822 77.6177 17.8227C78.0618 17.8551 78.3337 18.2442 78.3337 18.6659C78.3337 19.1281 78.0255 19.4767 77.5272 19.5497C77.2825 19.5821 77.0287 19.5821 76.784 19.5821C76.1226 19.5902 76.1226 19.5821 76.1226 20.1983C76.1226 20.3443 76.1498 20.4984 76.1136 20.6443C76.0953 20.7335 75.9776 20.7983 75.896 20.8713C75.8234 20.8064 75.6966 20.7416 75.6875 20.6767C75.6785 19.7281 75.6875 18.7876 75.6875 17.8146ZM76.1588 18.1226V19.2334C76.5847 19.2334 76.9744 19.2578 77.3641 19.2253C77.7355 19.1929 77.8988 18.9578 77.8805 18.6335C77.8624 18.3173 77.6631 18.139 77.3187 18.1309C76.9382 18.1145 76.5576 18.1226 76.1588 18.1226ZM26.989 18.7795C27.143 18.7226 27.2608 18.674 27.3787 18.6335C27.4149 18.7226 27.4874 18.8119 27.4874 18.9011C27.4874 19.574 27.5236 20.247 27.4603 20.9118C27.3968 21.6739 26.4272 22.0713 25.7022 21.6496C25.5392 21.5523 25.4485 21.3659 25.3307 21.2281C25.367 21.1874 25.3942 21.1551 25.4304 21.1146C25.5482 21.1551 25.7022 21.1713 25.7656 21.2524C26.0375 21.601 26.4272 21.5929 26.7352 21.4226C26.9437 21.301 27.0253 20.9929 27.1068 20.7416C26.2369 20.9686 25.811 20.8956 25.4937 20.4577C25.1766 20.0038 25.2401 19.2172 25.6206 18.8604C25.9741 18.5281 26.4635 18.5119 26.989 18.7795ZM25.6932 19.7281C25.6932 20.3524 26.1281 20.7254 26.6447 20.5388C27.0253 20.401 27.2246 19.8902 27.0796 19.4119C26.9709 19.0632 26.7352 18.8281 26.3003 18.8687C25.9106 18.9173 25.6932 19.2497 25.6932 19.7281ZM1.3802 19.5659C1.3802 19.9957 1.38925 20.3199 1.37115 20.6443C1.37115 20.7173 1.26238 20.7902 1.20791 20.8632C1.1355 20.7902 0.990516 20.7173 0.990516 20.6443C0.972412 19.7118 0.972412 18.7795 0.972412 17.8146C1.64301 17.8146 2.27725 17.7741 2.89353 17.8308C3.35563 17.8713 3.60939 18.2523 3.58223 18.7226C3.56413 19.1929 3.25591 19.5173 2.73029 19.5578C2.31345 19.5902 1.88756 19.5659 1.3802 19.5659ZM1.40736 19.2334C1.85135 19.2334 2.25009 19.2578 2.63977 19.2253C2.9931 19.201 3.16539 18.9659 3.15634 18.6659C3.14729 18.3659 2.98405 18.1471 2.62167 18.1309C2.23199 18.1145 1.83325 18.1309 1.40736 18.1309V19.2334ZM31.3116 17.7984C31.955 17.7984 32.4987 17.7822 33.0423 17.8065C33.586 17.8308 33.8942 18.1309 33.9214 18.601C33.9485 19.1281 33.6586 19.493 33.1149 19.5578C32.7887 19.5983 32.4533 19.5983 32.1181 19.5821C31.8191 19.574 31.6831 19.6632 31.7103 19.9388C31.7284 20.1578 31.7284 20.3848 31.7013 20.6038C31.6922 20.6929 31.5834 20.774 31.529 20.8632C31.4565 20.7821 31.3206 20.7092 31.3206 20.6281C31.3025 19.7037 31.3116 18.7714 31.3116 17.7984ZM31.7375 19.2416C32.1543 19.2416 32.5349 19.2578 32.9156 19.2334C33.287 19.2091 33.4955 18.9984 33.4864 18.674C33.4774 18.3578 33.296 18.139 32.9064 18.1309C32.5259 18.1226 32.1543 18.1309 31.7375 18.1309V19.2416ZM17.9725 18.7552C17.9725 18.5038 17.9543 18.2768 17.9816 18.0578C17.9906 17.9686 18.0994 17.8794 18.1537 17.7903C18.2261 17.8713 18.353 17.9524 18.353 18.0335C18.3713 18.9011 18.3713 19.7605 18.353 20.6281C18.353 20.7092 18.2534 20.7821 18.199 20.8632C17.8728 20.5712 17.6009 20.9523 17.2929 20.9118C17.166 20.8956 17.021 20.8956 16.9032 20.8551C16.2688 20.6443 16.006 19.8498 16.305 19.1524C16.5225 18.6497 17.2475 18.3984 17.8002 18.7388C17.8183 18.7633 17.8547 18.7552 17.9725 18.7552ZM18.1265 19.8498C18.0087 19.3145 17.8275 18.9497 17.4741 18.9173C17.2565 18.893 16.9484 18.9903 16.7854 19.1281C16.4863 19.3876 16.4954 20.1254 16.7944 20.3767C16.9665 20.5227 17.3743 20.6524 17.5103 20.5712C17.7731 20.4172 17.9271 20.1011 18.1265 19.8498ZM39.3132 20.8875C39.1844 20.8339 39.0545 20.7825 38.9235 20.7335C38.552 20.7902 38.1895 20.8875 37.827 20.9037C37.4465 20.9118 37.1473 20.6848 37.1837 20.3605C37.2108 20.1254 37.4282 19.8415 37.6548 19.7199C37.9267 19.574 38.2983 19.5983 38.6154 19.5254C38.7242 19.5011 38.9144 19.4038 38.9054 19.355C38.8873 19.2253 38.8239 19.0389 38.7151 18.9821C38.3707 18.8038 38.0264 18.8119 37.7184 19.0956C37.6186 19.1848 37.4918 19.2497 37.2652 19.4038C37.4192 18.7307 37.7998 18.5524 38.5882 18.6172C39.1048 18.6578 39.3041 18.8523 39.3041 19.3469C39.3222 19.8253 39.3132 20.3118 39.3132 20.8875ZM38.8601 19.7686C38.5247 19.8253 38.2076 19.8578 37.9177 19.955C37.7817 20.0038 37.6005 20.1983 37.6186 20.2956C37.6458 20.4334 37.8179 20.6038 37.972 20.6443C38.4523 20.7659 39.1139 20.3443 38.8601 19.7686ZM67.5953 19.1686C67.8762 18.6172 68.8367 18.3659 69.3624 18.7307C69.5164 18.8362 69.6161 19.0794 69.6342 19.2659C69.6706 19.7848 69.6433 20.2956 69.6433 20.8713C69.5275 20.8274 69.4127 20.7814 69.299 20.7335C68.8731 20.7983 68.5015 20.8875 68.139 20.8956C67.7857 20.9037 67.55 20.6848 67.5047 20.3686C67.4593 20.0524 67.6316 19.801 67.9578 19.7037C68.2659 19.6065 68.6103 19.5902 68.9274 19.5173C69.0452 19.4849 69.2537 19.3633 69.2445 19.3226C69.1993 19.1848 69.1178 18.9984 68.9819 18.9416C68.6465 18.7876 68.3113 18.8119 68.0394 19.0956C67.9487 19.1848 67.8038 19.2334 67.6859 19.2983C67.6497 19.2659 67.6226 19.2172 67.5953 19.1686ZM69.1993 19.7605C68.855 19.8253 68.5377 19.8498 68.2478 19.9469C68.1118 19.9876 67.9306 20.1902 67.9487 20.2875C67.9759 20.4253 68.148 20.5957 68.3022 20.6362C68.855 20.7821 69.2809 20.3767 69.1993 19.7605ZM64.4327 18.8362C64.614 18.7552 64.7318 18.6902 64.8495 18.6497C65.5111 18.4308 66.0276 18.7226 66.0638 19.3469C66.091 19.7524 66.091 20.1497 66.0729 20.555C66.0638 20.6605 65.9551 20.7578 65.8917 20.8632C65.8191 20.7497 65.7014 20.6443 65.6924 20.5307C65.6651 20.174 65.6832 19.8172 65.6832 19.4605C65.6832 19.1524 65.5655 18.9173 65.1939 18.893C64.7862 18.8687 64.5052 19.0632 64.46 19.4281C64.4146 19.801 64.4508 20.174 64.4236 20.5469C64.4146 20.6605 64.2967 20.7659 64.2243 20.8713C64.1699 20.7659 64.0612 20.6686 64.0612 20.5631C64.0431 19.7443 64.0431 18.9254 64.0612 18.0983C64.0612 17.9929 64.1699 17.8957 64.2334 17.7984C64.2967 17.8957 64.4146 17.9848 64.4236 18.0821C64.4508 18.3092 64.4327 18.5443 64.4327 18.8362ZM45.14 19.7443C45.1491 19.0146 45.5931 18.5929 46.3451 18.601C47.0521 18.6091 47.4961 19.047 47.4961 19.7524C47.4961 20.4903 47.0521 20.9199 46.318 20.9199C45.584 20.9199 45.14 20.4741 45.14 19.7443ZM47.0792 19.7443C47.0792 19.2172 46.7712 18.8687 46.318 18.8687C45.8649 18.8687 45.5569 19.2253 45.5478 19.7524C45.5478 20.2956 45.874 20.6686 46.3451 20.6524C46.7983 20.6281 47.0883 20.2794 47.0792 19.7443ZM84.4323 19.7605C84.4232 20.4903 83.9792 20.9199 83.2361 20.9118C82.5112 20.9037 82.0672 20.4496 82.0762 19.7199C82.0943 18.9984 82.5474 18.5767 83.2996 18.5929C84.0064 18.6091 84.4413 19.0632 84.4323 19.7605ZM82.484 19.7443C82.475 20.2632 82.774 20.6281 83.227 20.6524C83.6983 20.6686 84.0245 20.2956 84.0245 19.7524C84.0245 19.2334 83.7074 18.8768 83.2634 18.8687C82.8102 18.8604 82.4931 19.2172 82.484 19.7443ZM22.2678 18.7876C22.5487 18.7226 22.8115 18.6172 23.0743 18.601C23.5726 18.5767 23.8535 18.82 23.8808 19.2659C23.908 19.7118 23.899 20.1578 23.8808 20.6038C23.8808 20.6929 23.763 20.774 23.6995 20.8551C23.6361 20.774 23.5183 20.6929 23.5093 20.6038C23.4912 20.2145 23.5002 19.8253 23.4912 19.4443C23.4821 19.12 23.3371 18.8768 22.9474 18.8768C22.5759 18.8768 22.304 19.047 22.2768 19.4119C22.2497 19.7848 22.2768 20.1578 22.2406 20.5307C22.2316 20.6443 22.1047 20.7497 22.0321 20.8632C21.9688 20.7578 21.851 20.6605 21.851 20.555C21.8329 20.02 21.8329 19.4849 21.851 18.9497C21.851 18.8443 21.9324 18.7388 21.9688 18.6335C22.0866 18.6983 22.1952 18.7552 22.2678 18.7876ZM9.68986 19.7929C9.68081 20.5307 9.23681 20.9361 8.47554 20.9199C7.76874 20.9037 7.36095 20.466 7.37 19.7443C7.37906 19.0065 7.80495 18.5929 8.56621 18.601C9.29112 18.601 9.69891 19.0389 9.68986 19.7929ZM7.76874 19.7605C7.76874 20.4091 8.21274 20.7821 8.75646 20.6038C9.1733 20.466 9.3999 19.9712 9.26397 19.4686C9.16424 19.0956 8.91064 18.8524 8.45744 18.8768C8.0225 18.893 7.76874 19.2334 7.76874 19.7605ZM56.1592 20.1254C56.3768 20.247 56.4944 20.328 56.6304 20.3929C56.8298 20.4903 57.0382 20.6443 57.2286 20.6281C57.4278 20.6119 57.6092 20.4172 57.7994 20.3037C57.6544 20.1821 57.5366 20.0281 57.3645 19.955C57.1288 19.8498 56.8479 19.8334 56.6123 19.7362C56.2045 19.574 56.1049 19.1362 56.3858 18.8442C56.8208 18.3903 57.8537 18.5767 58.1437 19.2821C57.9082 19.1767 57.7813 19.1118 57.6454 19.0632C57.455 18.9903 57.2557 18.8768 57.0655 18.8849C56.9114 18.893 56.7663 19.0632 56.6213 19.1605C56.7392 19.2659 56.8389 19.4119 56.9838 19.4686C57.2376 19.574 57.5276 19.6065 57.7904 19.6956C58.2615 19.8659 58.3703 20.3037 58.0441 20.6362C57.7178 20.9686 57.2738 20.9605 56.8389 20.8875C56.4582 20.8308 56.2226 20.6119 56.1592 20.1254ZM10.8408 18.6254C11.5022 18.6497 11.3845 19.1118 11.5386 19.3633C11.7107 19.6632 11.8014 19.9957 11.9735 20.4334C12.1456 20.0119 12.2544 19.6713 12.4266 19.355C12.5715 19.0956 12.4901 18.6578 13.1243 18.601C12.7981 19.3633 12.5263 20.0605 12.2092 20.7335C12.0913 20.9767 11.8376 20.9361 11.7288 20.701C11.4298 20.0524 11.167 19.3795 10.8408 18.6254ZM86.3534 18.5686C86.5255 18.6172 86.6705 18.6578 86.9606 18.7388C86.6705 18.8523 86.5165 18.9092 86.3353 18.9821C86.3353 19.493 86.3443 20.0119 86.3262 20.5388C86.3172 20.6524 86.1994 20.7578 86.1269 20.8713C86.0634 20.7659 85.9637 20.6686 85.9547 20.5631C85.9275 20.2227 85.9456 19.874 85.9456 19.5335C85.9456 19.2334 86.0725 18.8849 85.6556 18.8362C85.7735 18.5767 85.9004 18.3659 85.9728 18.1471C86.0725 17.8308 86.4984 17.6037 86.8337 17.7335C86.8881 17.7578 86.9697 17.8551 86.9606 17.8876C86.9333 17.9524 86.8519 18.0173 86.7793 18.0416C86.3534 18.1552 86.3534 18.1471 86.3534 18.5686ZM43.6176 18.5686C43.7898 18.6172 43.9348 18.6578 44.0797 18.6983C44.0888 18.7307 44.0888 18.7714 44.0978 18.8038C43.9438 18.8524 43.7988 18.9092 43.5994 18.974C43.5994 19.493 43.6086 20.02 43.5903 20.555C43.5903 20.6605 43.4817 20.7659 43.4273 20.8632C43.3548 20.7578 43.237 20.6524 43.228 20.5388C43.2008 20.2145 43.2099 19.8821 43.2189 19.5578C43.237 19.2334 43.2732 18.9173 42.9197 18.82C43.0376 18.5767 43.1554 18.3659 43.228 18.1471C43.3275 17.8308 43.7445 17.6037 44.0797 17.7335C44.1431 17.7578 44.2247 17.847 44.2066 17.8794C44.1795 17.9443 44.0978 18.0335 44.0345 18.0335C43.6176 18.0335 43.5722 18.2523 43.6176 18.5686ZM41.3612 18.5524C41.5152 18.6091 41.6602 18.6578 41.8415 18.7226C41.6421 18.8687 41.3793 18.9659 41.3702 19.0875C41.3249 19.5173 41.3612 19.9469 41.3793 20.3767C41.3793 20.4415 41.4971 20.4984 41.5606 20.5631C41.6421 20.6443 41.7146 20.7254 41.7961 20.8064C41.6783 20.8389 41.5606 20.8956 41.4428 20.8956C41.1164 20.8794 40.9805 20.6848 40.9715 20.4172C40.9624 20.0767 40.9896 19.7281 40.9534 19.3876C40.9353 19.1686 40.8265 18.9578 40.745 18.6902L41.189 17.8957C41.2343 17.9119 41.2705 17.9281 41.3159 17.9443C41.3249 18.1471 41.343 18.3497 41.3612 18.5524ZM71.0661 18.7064C71.202 18.4632 71.356 18.1795 71.5101 17.9038C71.5553 17.92 71.5917 17.9362 71.6369 17.9524L71.6913 18.5605C71.8453 18.6172 71.9903 18.6659 72.1626 18.7307C71.9631 18.8768 71.7003 18.9821 71.6913 19.0956C71.655 19.5416 71.6913 19.9876 71.7184 20.4334C71.7184 20.4822 71.8272 20.5307 71.8907 20.5793C71.9722 20.6443 72.0538 20.7173 72.1354 20.7821C72.0085 20.8226 71.8816 20.9037 71.7638 20.9037C71.4375 20.8956 71.3016 20.6929 71.2925 20.4253C71.2835 20.0848 71.3106 19.7362 71.2744 19.3957C71.2473 19.1767 71.1475 18.9659 71.0661 18.7064ZM61.7142 18.6902C61.841 18.4632 61.9951 18.1714 62.2035 17.7822C62.4029 18.2037 62.0857 18.6902 62.7382 18.7876C62.6022 18.8523 62.4753 18.9092 62.3123 18.9903C62.3123 19.3957 62.2942 19.8091 62.3213 20.2227C62.3304 20.3443 62.4844 20.466 62.5751 20.5793C62.6294 20.6524 62.6838 20.7254 62.7291 20.8064C62.6475 20.8389 62.566 20.9037 62.4844 20.9037C62.1582 20.9118 61.9407 20.7983 61.9316 20.466C61.9316 20.1254 61.9407 19.7767 61.9135 19.4362C61.8954 19.2091 61.7957 18.9821 61.7142 18.6902ZM89.8695 18.6902C89.9873 18.4713 90.1323 18.1795 90.2863 17.8876C90.3316 17.9038 90.377 17.9119 90.4222 17.9281C90.4313 18.1309 90.4494 18.3254 90.4584 18.5524C90.5853 18.601 90.7212 18.6578 90.9478 18.7471C90.2318 18.9578 90.4856 19.4281 90.4403 19.8091C90.3951 20.2227 90.3951 20.6119 91.129 20.7416C90.3316 21.001 90.0778 20.8632 90.0597 20.3443C90.0507 20.0767 90.0778 19.8091 90.0507 19.5416C90.0325 19.274 89.9419 18.9984 89.8695 18.6902ZM50.2328 18.7795C50.124 18.8362 50.0152 18.9497 49.9065 18.9497C49.4896 18.9335 49.3356 19.1443 49.3084 19.4686C49.2813 19.8415 49.2994 20.2145 49.2722 20.5793C49.2632 20.6848 49.1453 20.774 49.0728 20.8713C49.0094 20.774 48.8825 20.6686 48.8825 20.5712C48.8644 20.02 48.8644 19.4686 48.8825 18.9254C48.8825 18.8281 48.9823 18.7307 49.0366 18.6416C49.1272 18.7064 49.2178 18.7633 49.2268 18.7714C49.5324 18.7139 49.8375 18.6544 50.1421 18.5929C50.1783 18.6497 50.2056 18.7145 50.2328 18.7795ZM5.40363 18.7633C5.65738 18.7064 5.88383 18.6416 6.11043 18.6172C6.16489 18.6091 6.23731 18.7388 6.30067 18.8038C6.2192 18.8524 6.13759 18.9578 6.06517 18.9497C5.61197 18.9092 5.46699 19.1524 5.43078 19.4767C5.39457 19.8498 5.41268 20.2227 5.38552 20.5876C5.37647 20.6848 5.27675 20.7659 5.22244 20.8551C5.14987 20.7659 5.02299 20.6686 5.01394 20.5793C4.99584 20.0281 4.99584 19.4767 5.01394 18.9254C5.01394 18.82 5.09556 18.7226 5.14082 18.6254C5.25865 18.6902 5.36742 18.7471 5.40363 18.7633ZM79.7654 18.5119C79.8903 18.5972 80.0142 18.6837 80.137 18.7714C80.3907 18.7145 80.6081 18.6497 80.8347 18.6254C80.8891 18.6172 80.9707 18.7471 81.034 18.82C80.9707 18.8687 80.8981 18.974 80.8438 18.9659C80.2185 18.9011 80.1732 19.2902 80.146 19.6713C80.1279 19.9957 80.146 20.328 80.1279 20.6524C80.1279 20.7254 80.0192 20.7983 79.9649 20.8794C79.8923 20.8145 79.7654 20.7578 79.7654 20.6929C79.7564 20.0038 79.7654 19.3307 79.7654 18.5119ZM35.7337 19.355C35.7337 19.7686 35.7428 20.1902 35.7247 20.6038C35.7247 20.6929 35.6068 20.774 35.5435 20.8632C35.48 20.7821 35.3531 20.701 35.3531 20.62C35.335 19.7686 35.335 18.9173 35.3531 18.074C35.3531 17.9767 35.489 17.8876 35.5525 17.7984C35.6069 17.8876 35.7156 17.9767 35.7156 18.0659C35.7428 18.4956 35.7337 18.9254 35.7337 19.355ZM20.3014 19.7443C20.3014 20.0443 20.3195 20.3361 20.2924 20.6362C20.2832 20.7173 20.1564 20.7902 20.0839 20.8632C20.0296 20.7902 19.9298 20.7173 19.9208 20.6362C19.9117 20.0443 19.9027 19.4524 19.9208 18.8524C19.9208 18.7714 20.0477 18.6983 20.1201 18.6254C20.1745 18.6983 20.2741 18.7714 20.2832 18.8524C20.3105 19.1524 20.3014 19.4524 20.3014 19.7443ZM14.7917 19.7281C14.7917 20.0362 14.8007 20.3524 14.7826 20.6605C14.7736 20.7335 14.6648 20.7983 14.6014 20.8632C14.5381 20.7983 14.4202 20.7254 14.4202 20.6605C14.4021 20.0524 14.4021 19.4443 14.4202 18.8362C14.4202 18.7633 14.5381 18.6983 14.6014 18.6335C14.6648 18.6983 14.7736 18.7633 14.7826 18.8362C14.8007 19.1362 14.7917 19.4281 14.7917 19.7281ZM88.4376 19.801C88.4376 20.0686 88.4558 20.3361 88.4285 20.6038C88.4195 20.6929 88.3199 20.7821 88.2655 20.8632C88.193 20.7821 88.0662 20.7092 88.0662 20.6281C88.0481 20.0362 88.0481 19.4443 88.0662 18.8524C88.0662 18.7795 88.1748 18.7064 88.2383 18.6335C88.3107 18.7145 88.4285 18.7876 88.4376 18.8687C88.4558 19.1767 88.4376 19.493 88.4376 19.801Z" fill="#32448C"/>
</svg>
