<svg xmlns="http://www.w3.org/2000/svg" xmlns:xlink="http://www.w3.org/1999/xlink"><symbol id="icon-search" viewBox="0 0 20 21">
<path d="M19.6959 19.1277L14.7656 13.9295C16.0332 12.4018 16.7278 10.4797 16.7278 8.47874C16.7278 3.80364 12.9757 0 8.36391 0C3.75212 0 0 3.80364 0 8.47874C0 13.1538 3.75212 16.9575 8.36391 16.9575C10.0952 16.9575 11.7451 16.4281 13.1557 15.4232L18.1235 20.6609C18.3311 20.8795 18.6104 21 18.9097 21C19.193 21 19.4617 20.8905 19.6657 20.6914C20.0992 20.2686 20.113 19.5675 19.6959 19.1277ZM8.36391 2.21185C11.7727 2.21185 14.5459 5.0231 14.5459 8.47874C14.5459 11.9344 11.7727 14.7456 8.36391 14.7456C4.95507 14.7456 2.18189 11.9344 2.18189 8.47874C2.18189 5.0231 4.95507 2.21185 8.36391 2.21185Z" fill="#87E389"/>
</symbol><symbol id="icon-user" viewBox="0 0 11 13">
<path d="M5.44995 6.25214C6.96674 6.25214 8.19646 4.85256 8.19646 3.12609C8.19646 1.39957 7.79273 0 5.44995 0C3.10718 0 2.70337 1.39957 2.70337 3.12609C2.70337 4.85256 3.93309 6.25214 5.44995 6.25214Z" fill="#87E389"/>
<path d="M10.3692 10.9195C10.3183 7.91198 9.89916 7.05499 6.69154 6.51251C6.69154 6.51251 6.24002 7.05166 5.18762 7.05166C4.13521 7.05166 3.68361 6.51251 3.68361 6.51251C0.511001 7.04907 0.0663405 7.89335 0.00787354 10.8218C0.00307925 11.061 0.000857515 11.0735 0 11.0458C0.00019489 11.0978 0.000428671 11.194 0.000428671 11.3618C0.000428671 11.3618 0.764085 12.8044 5.18762 12.8044C9.61107 12.8044 10.3748 11.3618 10.3748 11.3618C10.3748 11.254 10.3749 11.179 10.375 11.128C10.3741 11.1452 10.3724 11.1119 10.3692 10.9195Z" fill="#87E389"/>
</symbol></svg>