<svg width="91" height="44" viewBox="0 0 91 44" fill="none" xmlns="http://www.w3.org/2000/svg">
<path fill-rule="evenodd" clip-rule="evenodd" d="M90.6376 13.6112C90.6103 21.0611 84.0054 26.9546 75.8694 27.0193C67.5611 27.0843 60.8747 21.1422 60.7207 13.9598C60.5667 6.63963 67.0628 0.340846 75.4525 0.276053C83.8968 0.203026 90.6376 6.17758 90.6376 13.6112ZM76.1411 18.0942C76.1411 19.7884 76.132 21.4827 76.1503 23.1769C76.1593 23.9795 76.6848 24.2794 77.4367 23.8903C80.1882 22.4894 82.9334 21.0788 85.6725 19.6586C86.4426 19.2615 86.8322 18.6616 86.8322 17.8266C86.8141 14.9083 86.8231 11.9818 86.8231 9.06355C86.8231 7.9205 86.3429 7.64486 85.2015 8.14741C82.574 9.30666 79.9556 10.474 77.3281 11.6252C76.5127 11.9818 76.132 12.5169 76.1411 13.3276C76.1593 14.9164 76.1411 16.5053 76.1411 18.0942ZM75.1899 18.1671C75.1899 16.5377 75.1627 14.9083 75.1989 13.2789C75.217 12.4683 74.8274 11.9737 74.0483 11.6333C71.3482 10.4578 68.6665 9.26616 65.9756 8.08262C64.9427 7.62867 64.5079 7.86367 64.5079 8.8851C64.4988 11.6818 64.526 14.4705 64.4898 17.2672C64.4717 18.5157 65.0424 19.3831 66.2747 19.9911C68.7933 21.2394 71.2758 22.5527 73.7764 23.8336C74.6644 24.2875 75.1808 24.0362 75.1899 23.1283C75.1989 21.4746 75.1899 19.8209 75.1899 18.1671ZM75.7425 11.1469C76.0687 11.0415 76.4129 10.9604 76.7301 10.8225C79.5208 9.62342 82.3053 8.41287 85.0836 7.19091C85.3101 7.09359 85.4732 6.86668 85.6634 6.70456C85.4641 6.57484 85.2829 6.39639 85.0655 6.3073C82.5286 5.3832 79.9827 4.48325 77.4458 3.54295C76.2861 3.11329 75.1627 3.1052 74.0121 3.53485C71.5204 4.44276 69.0198 5.33447 66.5283 6.25871C66.2837 6.3478 66.1206 6.59914 65.9121 6.77745C66.1025 6.93957 66.2655 7.15042 66.5011 7.2557C69.2555 8.47178 72.0187 9.67152 74.7821 10.8632C75.0811 10.9848 75.4073 11.0496 75.7425 11.1469Z" fill="currentColor"/>
<path fill-rule="evenodd" clip-rule="evenodd" d="M41.4943 18.6539C42.5 17.8027 43.4151 17.0164 44.3301 16.2381C49.6303 11.731 54.9216 7.21559 60.2309 2.72465C60.702 2.32739 61.2184 1.90583 61.8073 1.69512C62.6227 1.39505 63.5831 1.80851 63.9999 2.47331C64.4347 3.15417 64.2897 4.02968 63.6102 4.62145C61.9977 6.01585 60.3668 7.4101 58.745 8.79639L48.9056 17.2352C46.3778 19.3997 43.859 21.5804 41.3041 23.7204C40.9053 24.0528 40.398 24.4014 39.8906 24.4905C38.5045 24.7338 37.5712 24.0204 37.5803 22.7476C37.6074 17.3892 37.6619 12.0309 37.7071 6.67241C37.7162 5.44837 37.7343 4.21623 37.7705 2.99206C37.7978 2.31119 38.2236 1.83281 38.9212 1.6059C39.6008 1.38695 40.2803 1.43568 40.8601 1.85724C41.4219 2.26246 41.5577 2.82184 41.5577 3.44601C41.5124 8.35864 41.4853 13.2792 41.4491 18.1919C41.4491 18.3053 41.4762 18.4188 41.4943 18.6539ZM7.0474 18.6782C9.83795 16.2949 12.5378 13.9926 15.2379 11.6822C18.871 8.58555 22.5041 5.49696 26.1282 2.39218C26.7352 1.87344 27.3966 1.48428 28.2755 1.64639C28.9912 1.77611 29.5257 2.14098 29.7433 2.79754C29.9697 3.51094 29.7704 4.13511 29.1724 4.64589C27.8406 5.7888 26.5087 6.92375 25.1678 8.0668C22.0783 10.7176 18.9796 13.3685 15.8902 16.0193C12.8187 18.6539 9.73823 21.2803 6.66677 23.923C5.96011 24.5311 5.15374 24.7095 4.25685 24.3933C3.3417 24.069 3.09715 23.3557 3.1062 22.5288C3.16051 16.4489 3.20577 10.3771 3.26023 4.29722C3.26023 3.85137 3.28739 3.40551 3.33265 2.96776C3.44142 2.06795 4.12997 1.51667 5.12658 1.50048C6.20482 1.47618 6.94768 1.97063 7.05645 2.88677C7.13792 3.55143 7.0655 4.23243 7.0655 4.91329C7.05645 8.61808 7.0474 12.3308 7.0474 16.0355V18.6782Z" fill="currentColor"/>
<path fill-rule="evenodd" clip-rule="evenodd" d="M72.1725 39.2446V32.0136C72.1725 31.1057 72.1725 30.1897 72.1816 29.2818C72.1906 28.4629 72.6799 27.9766 73.4772 27.9847C74.2564 27.9928 74.7366 28.4953 74.7366 29.306C74.7095 33.5458 74.6642 37.7773 74.6369 42.017C74.6369 42.6169 74.4919 43.1115 73.7943 43.3384C73.1148 43.5573 72.6075 43.3141 72.1454 42.8925C68.2948 39.3662 64.4442 35.8317 60.5936 32.3054C60.4758 32.2001 60.3581 32.1028 60.1134 31.9083C60.0863 32.2325 60.0591 32.4432 60.0591 32.6541L59.9503 41.9927C59.9413 42.8277 59.4882 43.306 58.7182 43.3141C57.8847 43.3222 57.4045 42.8439 57.4135 41.9684C57.4497 37.672 57.4859 33.3675 57.5676 29.0709C57.5766 28.7224 57.8847 28.2765 58.2018 28.0495C58.6637 27.7252 59.2527 27.8388 59.7058 28.1711C60.0682 28.4386 60.3853 28.7548 60.7114 29.0628L71.5656 39.0176C71.6742 39.1231 71.8011 39.2041 71.9189 39.3014C72.0094 39.2771 72.0911 39.2609 72.1725 39.2446ZM43.0168 33.8457C45.019 32.0542 46.9399 30.3275 48.8697 28.6008C49.0328 28.4548 49.2049 28.3008 49.3861 28.163C49.8663 27.7983 50.3918 27.7171 50.9717 27.9442C51.5334 28.163 51.6784 28.6008 51.6784 29.0953C51.6874 29.9464 51.6874 30.7895 51.6784 31.6407C51.6422 35.0698 51.5968 38.5069 51.5515 41.936C51.5425 42.8358 51.0351 43.2817 50.1382 43.2168C49.3861 43.1601 49.0057 42.7304 49.0057 41.9441C49.0147 38.8312 49.0328 35.7101 49.0419 32.5972V31.811C48.7066 32.0947 48.4983 32.273 48.2898 32.4513C46.9036 33.6917 45.5356 34.9562 44.1312 36.1804C43.4064 36.8127 42.6091 36.7803 41.8933 36.1317C40.5085 34.8845 39.1373 33.6252 37.7799 32.3541C37.5716 32.1595 37.4447 31.9002 37.2816 31.665L36.9283 31.8353V33.643L36.9011 41.7171C36.9011 42.2764 36.7652 42.7871 36.1219 43.0303C35.2069 43.3708 34.3372 42.8439 34.328 41.9117C34.3189 40.4687 34.3553 39.0338 34.3643 37.5909C34.3824 34.8347 34.3824 32.0785 34.3915 29.3222C34.3915 29.1925 34.3915 29.0709 34.4005 28.9412C34.4458 28.39 34.6814 27.9604 35.2974 27.7576C35.8864 27.5712 36.3757 27.7333 36.7833 28.1144C38.2601 29.4601 39.7188 30.8138 41.1866 32.1676C41.7756 32.727 42.3735 33.262 43.0168 33.8457ZM30.0425 38.4259C27.8047 38.4259 25.6303 38.4745 23.4557 38.4016C22.4955 38.3692 21.825 38.6123 21.1727 39.2284C19.9585 40.3552 18.6629 41.4171 17.3855 42.4872C17.1499 42.6818 16.8599 42.8682 16.552 42.9412C15.9358 43.0872 15.3559 42.9817 15.0207 42.4224C14.7036 41.8873 14.8395 41.3928 15.3107 40.9794C16.3073 40.112 17.322 39.2446 18.3277 38.3854C22.2236 35.0455 26.1195 31.7136 30.0153 28.3738C30.1882 28.2274 30.3697 28.0894 30.5591 27.9604C31.012 27.6443 31.5012 27.6117 32.0268 27.8226C32.5523 28.0333 32.7244 28.4467 32.7244 28.9088C32.6882 33.2052 32.6519 37.5099 32.5975 41.8063C32.5885 42.6656 32.1445 43.0872 31.311 43.0789C30.4684 43.0789 30.0334 42.6494 30.0244 41.7982C30.0425 40.7282 30.0425 39.6499 30.0425 38.4259ZM30.0517 36.2128V31.665C28.2578 33.2052 26.5815 34.6563 24.7785 36.2128H30.0517ZM90.5467 38.2395C90.5467 38.9772 90.6101 39.7229 90.5195 40.4606C90.4743 40.8497 90.2567 41.3036 89.9396 41.555C87.2488 43.687 84.1411 44.1977 80.8251 43.0789C77.5362 41.9684 75.688 39.7229 75.2893 36.5856C74.7547 32.3703 78.0526 28.5522 82.8455 28.0009C85.5365 27.6928 87.9554 28.3413 89.985 30.0113C90.755 30.6436 90.8638 31.3003 90.2929 31.8272C89.677 32.4027 88.9521 32.3703 88.173 31.7379C86.4153 30.3113 84.3768 29.8492 82.1298 30.4977C79.8647 31.1544 78.4331 32.5729 77.9258 34.6725C77.3913 36.8775 78.4422 39.0581 80.6258 40.4038C82.5646 41.5955 85.3008 41.6118 87.3303 40.4606C87.7924 40.2012 88.028 39.9175 88.0099 39.3986C87.9735 38.5718 88.028 37.7449 88.0642 36.9262C88.0914 36.1723 88.5354 35.7912 89.3508 35.7912C90.0846 35.7912 90.5829 36.2128 90.6191 36.9019C90.6464 37.3478 90.6282 37.7936 90.6282 38.2395H90.5467ZM15.4556 38.1907C15.4556 38.5313 15.4104 38.8717 15.4647 39.2041C15.6459 40.266 15.0659 40.9389 14.1691 41.5469C8.95938 45.0975 1.15859 42.2603 0.234386 36.4641C-0.463215 32.0947 2.56299 28.2684 7.42825 27.5226C10.2641 27.0849 12.8282 27.7659 14.9664 29.5493C15.5916 30.068 15.6821 30.8219 15.2019 31.3084C14.6855 31.8272 13.7795 31.811 13.1181 31.2678C11.2426 29.7114 9.06815 29.2818 6.68538 30.1004C4.23005 30.9435 2.82565 32.646 2.68972 34.9805C2.48137 38.7015 6.20518 41.2793 9.81116 40.7363C10.11 40.6875 10.4181 40.647 10.7081 40.5578C12.7284 39.9661 12.8915 39.7553 12.9006 37.8989C12.9006 37.3883 12.8915 36.8775 12.9187 36.3749C12.9641 35.6858 13.4624 35.2481 14.1781 35.2481C14.903 35.24 15.4466 35.7184 15.4828 36.4154C15.5009 36.7073 15.4556 37.0072 15.4556 37.3071C15.4556 37.5909 15.4647 37.8908 15.4556 38.1907C15.4556 38.1907 15.4647 38.1907 15.4556 38.1907Z" fill="currentColor"/>
<path fill-rule="evenodd" clip-rule="evenodd" d="M35.4252 12.6869C35.4252 15.1432 35.4342 17.5996 35.4252 20.0557C35.4252 21.0529 35.3799 22.0419 35.3618 23.0389C35.3437 23.9955 34.6097 24.6927 33.5679 24.7413C32.5531 24.7899 31.5746 24.0684 31.5656 23.1362C31.5384 20.8665 31.5927 18.6047 31.6108 16.3349C31.6289 14.7865 31.6561 13.2463 31.6651 11.6979C31.6923 8.99037 31.7558 6.27475 31.7287 3.5671C31.7106 2.22953 32.7072 1.65396 33.6584 1.63776C34.8 1.61346 35.5611 2.39165 35.5611 3.59139C35.552 6.17743 35.5158 8.76346 35.4977 11.3413V12.6788C35.4704 12.6869 35.4523 12.6869 35.4252 12.6869Z" fill="currentColor"/>
<path fill-rule="evenodd" clip-rule="evenodd" d="M55.9638 35.6211C55.9638 37.7611 55.9729 39.8932 55.9638 42.0332C55.9638 42.8277 55.4836 43.2898 54.7135 43.2979C53.9253 43.306 53.4088 42.8116 53.4178 42.0008C53.4542 37.6801 53.4995 33.3675 53.5447 29.0466C53.5538 28.3251 54.0521 27.8631 54.7951 27.8631C55.5924 27.8631 56.0817 28.3089 56.0907 29.0871C56.0998 31.2678 56.0907 33.4485 56.0907 35.6292C56.0544 35.6211 56.0091 35.6211 55.9638 35.6211ZM85.5636 11.561C85.4005 11.9986 85.2646 12.5418 84.9837 13.0119C84.8477 13.239 84.422 13.4659 84.1411 13.4416C83.8783 13.4254 83.534 13.1255 83.4254 12.8741C83.063 12.0392 83.1807 11.1961 83.7062 10.4503C83.8783 10.199 84.2951 9.92336 84.576 9.9478C84.8477 9.97209 85.1468 10.3206 85.3189 10.5882C85.482 10.8395 85.4729 11.1637 85.5636 11.561ZM80.3539 19.5133C80.1908 19.9187 80.0549 20.4862 79.7468 20.9644C79.3392 21.5968 78.5328 21.4914 78.2338 20.8104C77.8533 19.9268 78.0074 19.0513 78.56 18.2731C78.7231 18.0462 79.1399 17.8111 79.4026 17.8354C79.6654 17.8596 79.9644 18.1758 80.1094 18.4352C80.2634 18.6947 80.2634 19.0351 80.3539 19.5133ZM83.2804 15.5088C83.0811 16.0438 82.9452 16.6032 82.6643 17.0977C82.5374 17.3247 82.1026 17.5597 81.8307 17.5435C81.577 17.5273 81.2418 17.2112 81.1241 16.9679C80.7798 16.206 80.8613 15.4116 81.3053 14.7144C81.4955 14.4063 81.9576 14.0253 82.2657 14.0496C82.5646 14.074 82.8545 14.5442 83.0721 14.8603C83.1897 15.0224 83.1445 15.2737 83.1716 15.4764C83.2078 15.4845 83.2442 15.5007 83.2804 15.5088ZM73.4772 20.1295C73.4138 20.397 73.4138 20.697 73.2779 20.9239C73.1239 21.1753 72.8521 21.5319 72.6074 21.5481C72.3084 21.5643 71.8554 21.3536 71.6923 21.1103C71.1487 20.3241 71.0128 19.4486 71.3844 18.5568C71.6651 17.892 72.4534 17.7787 72.8612 18.3947C73.1964 18.9054 73.3505 19.5133 73.5769 20.0727C73.5498 20.097 73.5135 20.1134 73.4772 20.1295ZM71.0128 14.0577C71.1759 13.1012 71.493 12.5661 72.0367 12.5418C72.5531 12.5094 73.142 13.0364 73.2598 13.8389C73.3413 14.4063 73.3232 15.0305 73.151 15.5737C72.9246 16.279 72.1363 16.36 71.7196 15.7358C71.3844 15.225 71.2394 14.617 71.0128 14.0577ZM68.4488 12.404C68.331 13.239 68.0048 13.7903 67.5246 13.8389C66.9811 13.8956 66.4918 13.4659 66.3468 12.631C66.2562 12.1121 66.2744 11.5366 66.4193 11.0259C66.6006 10.3937 67.3706 10.2882 67.7512 10.8476C68.0865 11.3178 68.2313 11.8852 68.4488 12.404ZM68.4488 17.8111C68.331 18.2488 68.2948 18.6135 68.1317 18.9298C67.878 19.4243 67.2801 19.4567 66.8723 19.0432C66.3106 18.484 66.1204 17.0734 66.5099 16.4086C66.8361 15.8493 67.5337 15.8168 67.8961 16.4005C68.177 16.8382 68.2858 17.3652 68.4488 17.8111ZM75.8601 8.11565C75.1806 7.91304 74.5373 7.81571 73.9936 7.55627C73.1601 7.14295 73.142 6.31604 73.885 5.77286C74.8181 5.0839 76.8929 5.10009 77.8171 5.79715C78.4876 6.29984 78.4966 7.11042 77.7446 7.49958C77.1829 7.79952 76.5034 7.92114 75.8601 8.11565Z" fill="currentColor"/>
</svg>
